# xmcd
#
# Track frame offsets:
#	150
#	14341
#	29491
#	38240
#	48043
#	62686
#	74685
#	90377
#	98673
#	110487
#	122426
#	136611
#	152411
#	164332
#	176661
#	193685
#	203918
#	213858
#	228702
#	240673
#	254468
#	267768
#	282214
#	298637
#	311888
#
# Disc length: 4345 seconds
#
# Revision: 5
# Processed by: cddbd v1.5.2PL0 Copyright (c) Steve Scherf et al.
# Submitted via: EasyCDDAExtractor 11.0.2.1
#
DISCID=6110f719
DTITLE=Various Artist - Volume 1
DYEAR=1900
DGENRE=Sertanejo
TTITLE0=Raul Torres e Florêncio - Cabocla Tereza
TTITLE1=Luizinho e Limeira - O Menino da Porteira
TTITLE2=Mariano da Silva e Serrinha - Saudade de Matão
TTITLE3=Tonico e Tinoco - Canta Moçada
TTITLE4=Palmeira e Biá - Boneca Cobiçada
TTITLE5=Duo Ciriema - Não Beba Mais Não
TTITLE6=Torrinha e Canhotinho - Divino Espírito Santo
TTITLE7=Nenete e Dorinho - Vinte Anos
TTITLE8=Alvarenga e Ranchinho - Saudades de Ouro Preto
TTITLE9=Marion Zan - Festa na Roça
TTITLE10=Belmonte e Amarai - Saudades de Minha Terra
TTITLE11=Zilo e Zalo - O Milagre do Ladrão
TTITLE12=Tibagi e Miltinho - Passarinho do Peito Amarelo
TTITLE13=Cascatinha e Inhana - Flor do Cafezal
TTITLE14=Pedro Bento e Zé da Estrada - Mágoa de Boaiadeiro
TTITLE15=Leo Canhoto e Robertinho - Apartamento 37
TTITLE16=Caçula e Marinheiro - Nossa União
TTITLE17=Zé do Rancho e Zé do Pinho - Chitãozinho e Xororó
TTITLE18=Brazão e Brazãozinho - Beijinho Doce
TTITLE19=Silveira e Barrinha - Coração Apaixonado
TTITLE20=Irmãs Galvão - Não Me Abandones
TTITLE21=Tião Carreiro e Carreirinho - Meu Fracasso
TTITLE22=Tavares e Zé Negrão - Rio de Lágrimas
TTITLE23=Raul Torres e Florêncio - Chico Mulato
TTITLE24=Sulino e Marrueiro - Promessa do Batistinha
EXTD=
EXTT0=
EXTT1=
EXTT2=
EXTT3=
EXTT4=
EXTT5=
EXTT6=
EXTT7=
EXTT8=
EXTT9=
EXTT10=
EXTT11=
EXTT12=
EXTT13=
EXTT14=
EXTT15=
EXTT16=
EXTT17=
EXTT18=
EXTT19=
EXTT20=
EXTT21=
EXTT22=
EXTT23=
EXTT24=
PLAYORDER=
